<svg width="107" height="98" viewBox="0 0 107 98" fill="none" xmlns="http://www.w3.org/2000/svg">
<g id="Group 4">
<path id="M" d="M98.7452 62.1601V97.174H60.0327V84.5504L55.0955 92.9662H52.178L47.0163 84.5504V97.174H8.41602V26.64L53.3001 43.4815L72.9369 35.52L92.5737 28.2044C92.5737 28.2044 95.4604 33.7523 95.4604 37.74C95.4604 42.18 93.9763 40.5844 93.9763 49.092C93.9763 53.2998 93.9763 62.1601 93.9763 62.1601H98.7452Z" fill="white"/>
<path id="Vector 1" d="M0 19.2241L52.435 0L106.41 18.6696C104.932 19.2241 101.37 20.555 98.9548 21.4423C95.3072 16.3158 88.0283 14.3359 84.8448 13.9868C103.391 19.9019 101.912 39.9886 101.912 40.9128C104.439 42.1451 103.453 44.2401 103.021 44.9178C104.747 45.8544 105.26 47.5262 105.301 48.2451V58.4117H96.7983V51.0178V48.2451C97.168 46.0269 98.4619 45.4108 99.0164 44.9178C97.7841 43.1433 98.9137 41.7138 99.6326 41.2209C99.5093 29.2675 96.5518 26.1251 94.5185 23.0443L52.435 38.6947L0 19.2241Z" fill="#38CCB2"/>
</g>
</svg>
