<svg width="688" height="67" viewBox="0 0 688 67" fill="none" xmlns="http://www.w3.org/2000/svg">
<path d="M15.2966 37.4329C18.4037 37.0445 36.5153 20.7562 27.0927 33.3198C26.0209 34.7488 12.5079 46.3827 14.2101 48.2977C17.5699 52.0775 30.8463 40.469 33.4563 39.1402C41.3696 35.1117 49.5135 29.2799 57.8246 26.2577C63.2377 24.2893 49.3494 38.3027 47.503 40.1491C46.2629 41.3892 39.4372 47.2113 43.9331 47.2113C51.8467 47.2113 58.8452 38.4494 64.9643 34.0183C66.9527 32.5784 84.3527 20.7102 86.2283 22.3774C88.7529 24.6215 86.5388 38.9601 86.5388 42.3997C86.5388 49.1367 88.6129 46.2112 92.9024 42.9429C100.968 36.7979 106.83 29.206 115.796 24.1623C127.278 17.7037 114.94 45.8143 121.461 45.8143C123.796 45.8143 126.254 42.7116 127.98 41.4684C133.722 37.3344 139.304 32.9531 145.209 29.0515C147.394 27.6076 167.502 16.902 167.559 17.8762C168.03 25.8751 165.561 33.5671 164.843 41.4684C163.903 51.8131 168.948 44.2272 175.32 40.1491C182.811 35.3551 190.46 30.9927 197.981 26.2577C205.032 21.8182 202.482 38.4068 202.482 41.9341C202.482 45.5289 200.853 54.428 206.129 49.1514C215.623 39.6579 226.367 32.1566 238.103 25.6368C247.014 20.6863 245.786 23.2378 245.786 31.7677C245.786 34.3991 244.667 51.1402 249.278 42.9429C253.248 35.8864 260.587 29.5823 263.635 22.3774C264.236 20.958 267.674 14.3064 269.223 14.3064C270.731 14.3064 272.177 36.9406 272.638 39.2955C272.9 40.634 276.681 55.9748 279.001 52.178C280.728 49.3527 296.547 25.3037 297.549 33.3198C297.904 36.1629 304.608 47.056 307.871 47.056C309.078 47.056 315.885 34.5404 317.727 32.699C320.78 29.6457 323.167 39.9793 324.013 41.6236C328.066 49.5051 329.839 48.1909 335.188 41.3132C336.529 39.5891 345.006 25.0561 348.381 28.4306C351.509 31.5584 353.921 36.9618 356.142 40.8476C361.886 50.9012 376.976 26.7593 382.372 32.1557C387.016 36.7998 387.113 55.0217 398.67 46.9008C406.996 41.0495 414.659 34.7147 423.038 29.1291C427.245 26.3243 427.401 37.054 429.401 40.77C433.039 47.5251 435.776 45.8321 443.06 42.7101C446.067 41.4216 470.277 27.0198 470.688 32.1557C471.075 36.9951 473.302 45.2118 475.577 49.3066C478.044 53.7477 482.189 44.2322 484.036 41.546C495.897 24.2932 489.725 52.7989 500.799 52.7989C511.408 52.7989 526.592 22.636 533.238 39.9163C535.632 46.1416 535.48 46.3698 540.688 40.9252C543.082 38.4225 565.608 21.282 567.074 26.4129C568.937 32.9317 571.949 39.2111 574.369 45.5039C576.446 50.9032 589.391 35.1828 592.219 33.2422C600.347 27.6642 598.748 27.8655 601.997 37.4329C602.465 38.8101 607.78 53.697 609.292 47.9873C611.523 39.5569 611.775 30.1228 611.775 21.4461C611.775 11.9886 612.091 14.7344 616.044 22.1446C622.99 35.1687 633.401 52.7989 649.492 52.7989C657.043 52.7989 660.938 46.2071 663.771 40.2267C667.189 33.0113 666.355 45.116 670.445 42.7101C672.189 41.6842 675.165 29.2361 671.842 29.0515C665.204 28.6827 658.725 29.1605 652.286 30.4484" stroke="#38CCB2" stroke-width="28" stroke-linecap="round"/>
</svg>
