<svg width="407" height="70" viewBox="0 0 407 70" fill="none" xmlns="http://www.w3.org/2000/svg">
<path d="M59.6496 18.968C63.4976 18.968 66.9312 19.7672 69.9504 21.3656C73.0288 22.964 75.4264 25.332 77.1432 28.4696C78.9193 31.6072 79.8073 35.3961 79.8073 39.8361V68.6961H69.7728V41.3457C69.7728 36.9649 68.6776 33.62 66.4872 31.3112C64.2968 28.9432 61.3072 27.7592 57.5184 27.7592C53.7296 27.7592 50.7104 28.9432 48.4608 31.3112C46.2704 33.62 45.1752 36.9649 45.1752 41.3457V68.6961H35.1408V41.3457C35.1408 36.9649 34.0456 33.62 31.8552 31.3112C29.6648 28.9432 26.6752 27.7592 22.8864 27.7592C19.0976 27.7592 16.0783 28.9432 13.8287 31.3112C11.6383 33.62 10.5431 36.9649 10.5431 41.3457V68.6961H0.419922V19.7672H10.5431V25.3616C12.2007 23.3488 14.3023 21.78 16.8479 20.6552C19.3936 19.5304 22.1168 18.968 25.0176 18.968C28.9248 18.968 32.4176 19.7968 35.496 21.4544C38.5744 23.112 40.9424 25.5096 42.6 28.6472C44.08 25.6872 46.3888 23.3488 49.5264 21.632C52.664 19.856 56.0384 18.968 59.6496 18.968Z" fill="white"/>
<path d="M133.537 43.0329C133.537 44.8681 133.418 46.5257 133.182 48.0057H95.7968C96.0928 51.9129 97.5432 55.0505 100.148 57.4185C102.753 59.7865 105.95 60.9705 109.738 60.9705C115.185 60.9705 119.033 58.6913 121.282 54.1329H132.205C130.725 58.6321 128.031 62.3321 124.124 65.2329C120.276 68.0745 115.481 69.4953 109.738 69.4953C105.062 69.4953 100.858 68.4593 97.1288 66.3873C93.4584 64.2561 90.5576 61.2961 88.4264 57.5073C86.3544 53.6593 85.3184 49.2193 85.3184 44.1873C85.3184 39.1553 86.3248 34.7449 88.3376 30.956C90.4096 27.108 93.2808 24.148 96.9512 22.076C100.681 20.004 104.943 18.968 109.738 18.968C114.356 18.968 118.47 19.9744 122.082 21.9872C125.693 24 128.505 26.8416 130.518 30.512C132.53 34.1232 133.537 38.2969 133.537 43.0329ZM122.97 39.8361C122.91 36.1065 121.578 33.1168 118.974 30.8672C116.369 28.6176 113.142 27.4928 109.294 27.4928C105.802 27.4928 102.812 28.6176 100.326 30.8672C97.8392 33.0576 96.3592 36.0473 95.8856 39.8361H122.97Z" fill="white"/>
<path d="M164.19 18.968C168.038 18.968 171.471 19.7672 174.49 21.3656C177.569 22.964 179.966 25.332 181.683 28.4696C183.4 31.6072 184.258 35.3961 184.258 39.8361V68.6961H174.224V41.3457C174.224 36.9649 173.129 33.62 170.938 31.3112C168.748 28.9432 165.758 27.7592 161.97 27.7592C158.181 27.7592 155.162 28.9432 152.912 31.3112C150.722 33.62 149.626 36.9649 149.626 41.3457V68.6961H139.503V19.7672H149.626V25.3616C151.284 23.3488 153.386 21.78 155.931 20.6552C158.536 19.5304 161.289 18.968 164.19 18.968Z" fill="white"/>
<path d="M204.986 28.0256V55.1097C204.986 56.9449 205.4 58.2769 206.229 59.1057C207.117 59.8753 208.597 60.2601 210.669 60.2601H216.885V68.6961H208.893C204.334 68.6961 200.842 67.6305 198.414 65.4993C195.987 63.3681 194.774 59.9049 194.774 55.1097V28.0256H189.002V19.7672H194.774V7.60161H204.986V19.7672V28.0256C204.986 28.0256 209.946 26.1236 212.43 24.296C214.687 22.6356 216.885 19.7672 216.885 19.7672V28.0256H204.986Z" fill="white"/>
<path d="M243.442 69.4953C238.825 69.4953 234.651 68.4593 230.922 66.3873C227.192 64.2561 224.262 61.2961 222.13 57.5073C219.999 53.6593 218.933 49.2193 218.933 44.1873C218.933 39.2145 220.029 34.8041 222.219 30.956C224.41 27.108 227.399 24.148 231.188 22.076C234.977 20.004 239.21 18.968 243.886 18.968C248.563 18.968 252.796 20.004 256.585 22.076C260.374 24.148 263.363 27.108 265.554 30.956C267.744 34.8041 268.839 39.2145 268.839 44.1873C268.839 49.1601 267.714 53.5705 265.465 57.4185C263.215 61.2665 260.137 64.2561 256.23 66.3873C252.382 68.4593 248.119 69.4953 243.442 69.4953ZM243.442 60.7041C246.047 60.7041 248.474 60.0825 250.724 58.8393C253.033 57.5961 254.898 55.7313 256.318 53.2449C257.739 50.7585 258.45 47.7393 258.45 44.1873C258.45 40.6353 257.769 37.6457 256.407 35.2185C255.046 32.732 253.24 30.8672 250.99 29.624C248.741 28.3808 246.314 27.7592 243.709 27.7592C241.104 27.7592 238.677 28.3808 236.427 29.624C234.237 30.8672 232.49 32.732 231.188 35.2185C229.886 37.6457 229.234 40.6353 229.234 44.1873C229.234 49.4561 230.566 53.5409 233.23 56.4417C235.954 59.2833 239.358 60.7041 243.442 60.7041Z" fill="white"/>
<path d="M284.974 26.8712C286.454 24.3848 288.407 22.4608 290.835 21.0992C293.321 19.6784 296.251 18.968 299.626 18.968V29.4464H297.051C293.084 29.4464 290.065 30.4528 287.993 32.4656C285.98 34.4785 284.974 37.9713 284.974 42.9441V68.6961H274.851V19.7672H284.974V26.8712Z" fill="white"/>
<path d="M310.085 13.2848C308.25 13.2848 306.711 12.6632 305.468 11.42C304.225 10.1768 303.603 8.63761 303.603 6.8024C303.603 4.9672 304.225 3.428 305.468 2.1848C306.711 0.941594 308.25 0.319992 310.085 0.319992C311.861 0.319992 313.371 0.941594 314.614 2.1848C315.857 3.428 316.479 4.9672 316.479 6.8024C316.479 8.63761 315.857 10.1768 314.614 11.42C313.371 12.6632 311.861 13.2848 310.085 13.2848ZM315.058 19.7672V68.6961H304.935V19.7672H315.058Z" fill="white"/>
<path d="M333.322 60.4377H355.522V68.6961H321.6V60.4377L343.889 28.0256H321.6V19.7672H355.522V28.0256L333.322 60.4377Z" fill="white"/>
<path d="M407 43.0329C407 44.8681 406.881 46.5257 406.645 48.0057H369.26C369.556 51.9129 371.006 55.0505 373.611 57.4185C376.216 59.7865 379.412 60.9705 383.201 60.9705C388.648 60.9705 392.496 58.6913 394.745 54.1329H405.668C404.188 58.6321 401.494 62.3321 397.587 65.2329C393.739 68.0745 388.944 69.4953 383.201 69.4953C378.524 69.4953 374.321 68.4593 370.592 66.3873C366.921 64.2561 364.02 61.2961 361.889 57.5073C359.817 53.6593 358.781 49.2193 358.781 44.1873C358.781 39.1553 359.788 34.7449 361.8 30.956C363.872 27.108 366.744 24.148 370.414 22.076C374.144 20.004 378.406 18.968 383.201 18.968C387.819 18.968 391.933 19.9744 395.545 21.9872C399.156 24 401.968 26.8416 403.98 30.512C405.993 34.1232 407 38.2969 407 43.0329ZM396.432 39.8361C396.373 36.1065 395.041 33.1168 392.436 30.8672C389.832 28.6176 386.605 27.4928 382.757 27.4928C379.264 27.4928 376.275 28.6176 373.788 30.8672C371.302 33.0576 369.822 36.0473 369.348 39.8361H396.432Z" fill="white"/>
</svg>
