<svg width="179" height="28" viewBox="0 0 179 28" fill="none" xmlns="http://www.w3.org/2000/svg">
<path d="M8 16.7614C8.75129 16.6747 9.48135 16.0814 10.1796 15.7913C12.9423 14.6437 15.7917 13.8826 18.7421 13.4741C24.374 12.6943 30.1188 11.5358 35.8153 11.4262C42.7138 11.2935 24.1934 24.877 38.929 18.1086C48.7956 13.5767 59.8947 9.99916 70.6364 8.6239C74.4472 8.136 72.6144 11.3266 71.1554 13.3663C70.0609 14.8962 68.6145 16.7614 71.2592 16.7614C83.3199 16.7614 94.595 14.2513 106.34 11.534C110.666 10.5329 115.435 10.4042 119.625 8.89335C120.152 8.70318 122.884 7.5411 121.233 8.6239C119.564 9.71867 118.191 11.6823 116.459 12.8813C115.938 13.242 111.425 15.6453 111.425 16.2764C111.425 16.8936 129.906 12.1121 130.626 11.9112C131.951 11.5419 148.091 7.61301 148.115 8.0311C148.181 9.21039 147.409 13.5518 148.582 14.2285C151.033 15.6429 155.694 13.7269 157.923 12.8813C162.502 11.1438 166.069 10.4562 171 10.4562" stroke="#38CCB2" stroke-opacity="0.6" stroke-width="16" stroke-linecap="round"/>
</svg>
