<svg width="40" height="30" viewBox="0 0 40 30" fill="none" xmlns="http://www.w3.org/2000/svg">
<path id="Vector 10" d="M5 10.8997C5.10219 9.43237 8.63493 5.80654 9.54545 5.03744C10.0542 4.60768 8.42728 12.4477 8.35017 13.3474C8.19458 15.1626 8.0303 16.9347 8.0303 18.7866C8.0303 19.7984 11.2364 14.3917 11.734 13.4985C12.7209 11.7271 13.8688 10.4134 14.8653 8.72403C15.3781 7.85482 15.9124 6.18239 16.5152 5.58136C17.5633 4.53617 17.0696 10.7152 16.9697 11.5041C16.6083 14.3586 15.6061 17.4697 15.6061 20.4184C15.6061 23.8565 18.0964 18.8902 18.6364 17.9707C20.5675 14.6821 22.5064 11.5681 24.3939 8.18011C25.0179 7.06021 25.6889 5.69656 26.5152 5.03744C27.0174 4.63679 26.8182 7.57565 26.8182 7.93836C26.8182 11.9255 25.5836 15.5282 24.9832 19.3003C24.827 20.2816 22.9679 27.0574 24.4613 24.3769C26.287 21.0998 28.4796 18.0052 30.0842 14.405C30.2878 13.9482 31.2392 11.6136 31.5993 11.6854C31.7645 11.7183 31.6667 15.7936 31.6667 16.0368C31.6667 17.0218 31.2976 23.1643 32.1212 22.8358C33.227 22.3947 33.9377 19.6941 35 19.0586" stroke="#00FFD2" stroke-opacity="0.5" stroke-width="9" stroke-linecap="round"/>
</svg>
